<?xml version="1.0" encoding="UTF-8"?>
<svg xmlns="http://www.w3.org/2000/svg" xmlns:xlink="http://www.w3.org/1999/xlink" width="150pt" height="150pt" viewBox="0 0 150 150" version="1.1">
<g id="surface1">
<path style=" stroke:none;fill-rule:nonzero;fill:rgb(100%,100%,100%);fill-opacity:1;" d="M 104.1875 82.0625 C 112.75 87.875 118.75 95.75 118.75 106.25 L 118.75 125 L 143.75 125 L 143.75 106.25 C 143.75 92.625 121.4375 84.5625 104.1875 82.0625 Z M 104.1875 82.0625 "/>
<path style=" stroke:none;fill-rule:nonzero;fill:rgb(100%,100%,100%);fill-opacity:1;" d="M 93.75 75 C 107.5625 75 118.75 63.8125 118.75 50 C 118.75 36.1875 107.5625 25 93.75 25 C 90.8125 25 88.0625 25.625 85.4375 26.5 C 90.625 32.9375 93.75 41.125 93.75 50 C 93.75 58.875 90.625 67.0625 85.4375 73.5 C 88.0625 74.375 90.8125 75 93.75 75 Z M 93.75 75 "/>
<path style=" stroke:none;fill-rule:nonzero;fill:rgb(100%,100%,100%);fill-opacity:1;" d="M 56.25 75 C 70.0625 75 81.25 63.8125 81.25 50 C 81.25 36.1875 70.0625 25 56.25 25 C 42.4375 25 31.25 36.1875 31.25 50 C 31.25 63.8125 42.4375 75 56.25 75 Z M 56.25 37.5 C 63.125 37.5 68.75 43.125 68.75 50 C 68.75 56.875 63.125 62.5 56.25 62.5 C 49.375 62.5 43.75 56.875 43.75 50 C 43.75 43.125 49.375 37.5 56.25 37.5 Z M 56.25 37.5 "/>
<path style=" stroke:none;fill-rule:nonzero;fill:rgb(100%,100%,100%);fill-opacity:1;" d="M 56.25 81.25 C 39.5625 81.25 6.25 89.625 6.25 106.25 L 6.25 125 L 106.25 125 L 106.25 106.25 C 106.25 89.625 72.9375 81.25 56.25 81.25 Z M 93.75 112.5 L 18.75 112.5 L 18.75 106.3125 C 20 101.8125 39.375 93.75 56.25 93.75 C 73.125 93.75 92.5 101.8125 93.75 106.25 Z M 93.75 112.5 "/>
</g>
</svg>
